{"title":"Roar - Tigers of Sunderbans (2014) [1CD] DVDSCR Rip Xvid Mp3 Tea","uid":11337178,"size":734404208,"categoryP":"video","categoryS":"movies","magnet":"?xt=urn:btih:58d7bfd43485638323388c370365228c23a88370&amp;dn=Roar+-+Tigers+of+Sunderbans+%282014%29+%5B1CD%5D+DVDSCR+Rip+Xvid+Mp3+Tea&amp;tr=udp%3A%2F%2Ftracker.openbittorrent.com%3A80&amp;tr=udp%3A%2F%2Fopen.demonii.com%3A1337&amp;tr=udp%3A%2F%2Ftracker.coppersurfer.tk%3A6969&amp;tr=udp%3A%2F%2Fexodus.desync.com%3A6969","seeders":22,"leechers":7,"uploader":"inovai","files":22,"time":1414764560,"description":"Roar - Tigers of Sunderbans (2014)1CD DVDSCR Rip Xvid Mp3 Team TellyTNT Exclusive \n\nMovie:............Roar - Tigers of Sunderbans \nSource: ..........DVDSCR @ Team TellyTNT \nYear:.............2014\n\n\nScreenshots:\n &lt;a href=&quot;\nhttp://m.primetimeshow.in/share-E996_545388F9.html&quot; rel=&quot;nofollow&quot; target=&quot;_NEW&quot;&gt;\nhttp://m.primetimeshow.in/share-E996_545388F9.html&lt;/a&gt;\n &lt;a href=&quot;\nhttp://m.primetimeshow.in/share-F381_545388F9.html&quot; rel=&quot;nofollow&quot; target=&quot;_NEW&quot;&gt;\nhttp://m.primetimeshow.in/share-F381_545388F9.html&lt;/a&gt;\n &lt;a href=&quot;\nhttp://m.primetimeshow.in/share-1DAE_545388F9.html&quot; rel=&quot;nofollow&quot; target=&quot;_NEW&quot;&gt;\nhttp://m.primetimeshow.in/share-1DAE_545388F9.html&lt;/a&gt;\n &lt;a href=&quot;\nhttp://m.primetimeshow.in/share-8658_545388F9.html&quot; rel=&quot;nofollow&quot; target=&quot;_NEW&quot;&gt;\nhttp://m.primetimeshow.in/share-8658_545388F9.html&lt;/a&gt;\n &lt;a href=&quot;\nhttp://m.primetimeshow.in/share-E67E_545388F9.html&quot; rel=&quot;nofollow&quot; target=&quot;_NEW&quot;&gt;\nhttp://m.primetimeshow.in/share-E67E_545388F9.html&lt;/a&gt;\n\nGeneral\nComplete name : D:Roar - Tigers of Sunderbans.avi\nFormat : AVI\nFormat/Info : Audio Video Interleave\nFile size : 697 MiB\nDuration : 1h 58mn\nOverall bit rate : 820 Kbps\n\nVideo\nID : 0\nFormat : MPEG-4 Visual\nFormat profile : Advanced Simple@L5\nFormat settings, BVOP : 2\nFormat settings, QPel : No\nFormat settings, GMC : No warppoints\nFormat settings, Matrix : Default (H.263)\nCodec ID : XVID\nCodec ID/Hint : XviD\nDuration : 1h 58mn\nBit rate : 714 Kbps\nWidth : 640 pixels\nHeight : 272 pixels\nDisplay aspect ratio : 2.35:1\nFrame rate : 23.976 fps\nColor space : YUV\nChroma subsampling : 4:2:0\nBit depth : 8 bits\nScan type : Progressive\nCompression mode : Lossy\nBits/(Pixel*Frame) : 0.171\nStream size : 608 MiB (87%)\nWriting library : XviD 1.2.1 (UTC 2008-12-04)\n\nAudio\nID : 1\nFormat : MPEG Audio\nFormat version : Version 1\nFormat profile : Layer 3\nMode : Joint stereo\nMode extension : MS Stereo\nCodec ID : 55\nCodec ID/Hint : MP3\nDuration : 1h 58mn\nSource duration : 1h 58mn\nBit rate mode : Constant\nBit rate : 96.0 Kbps\nChannel(s) : 2 channels\nSampling rate : 32.0 KHz\nCompression mode : Lossy\nStream size : 81.6 MiB (12%)\nAlignment : Aligned on interleaves\nInterleave, duration : 42 ms (1.00 video frame)\nWriting library : LAME3.99r\nEncoding settings : -m j -V 4 -q 2 -lowpass 15.1 -b 96\n\n\nThanks to Team TellyTNT!!\n\nSeed n Enjoy!!","torrent":{"xt":"urn:btih:58d7bfd43485638323388c370365228c23a88370","amp;dn":"Roar+-+Tigers+of+Sunderbans+%282014%29+%5B1CD%5D+DVDSCR+Rip+Xvid+Mp3+Tea","amp;tr":["udp%3A%2F%2Ftracker.openbittorrent.com%3A80","udp%3A%2F%2Fopen.demonii.com%3A1337","udp%3A%2F%2Ftracker.coppersurfer.tk%3A6969","udp%3A%2F%2Fexodus.desync.com%3A6969"],"infoHash":"58d7bfd43485638323388c370365228c23a88370","infoHashBuffer":{"type":"Buffer","data":[88,215,191,212,52,133,99,131,35,56,140,55,3,101,34,140,35,168,131,112]},"announce":[],"urlList":[]}}